<svg width="80" height="80" viewBox="0 0 80 80" fill="none" xmlns="http://www.w3.org/2000/svg">
<path d="M39.9973 21.8081C42.8415 21.8053 45.6467 22.4704 48.1869 23.7498C50.7272 25.0292 52.9316 26.8872 54.6226 29.1741L56.9421 29.7952C54.301 25.4102 50.0626 22.2199 45.1181 20.8951C40.1735 19.5703 34.9079 20.2141 30.4282 22.6912L32.738 23.3123C35.0284 22.3165 37.4997 21.8044 39.9973 21.8081ZM51.944 20.7793L53.2154 21.8081L53.6036 20.265L55.0205 19.4401L53.6036 18.6151L53.2154 17.0721L51.944 18.1008L50.2845 17.9746L50.9153 19.4401L50.2845 20.9055L51.944 20.7793ZM29.9138 17.3244L28.6134 16.4218L28.3319 18.0328L26.9926 19.0033L28.4387 19.6924L28.8754 21.2452L30.0594 20.0612L31.6898 20.003L30.9814 18.586L31.5151 17.0332L29.9138 17.3244ZM42.1517 15.102L41.1813 13.8403L40.4146 15.2766L38.8327 15.8201L39.9973 16.9168V18.5181L41.4918 17.7611L43.0446 18.1881L42.7923 16.6159L43.7628 15.2961L42.1517 15.102ZM59.8439 25.0398L58.4755 24.0693L58.2814 25.6512L56.9906 26.6217L58.4852 27.3593L59.0481 28.8636L60.1641 27.7281H61.814L61.0085 26.3015L61.4549 24.7681L59.8439 25.0398ZM77.6524 36.9866L8.90261 18.5472C8.50115 18.4385 8.0822 18.4101 7.66972 18.4635C7.25725 18.5168 6.85935 18.651 6.4988 18.8584C6.13824 19.0657 5.82209 19.3421 5.56846 19.6717C5.31482 20.0013 5.12866 20.3777 5.02063 20.7793L0.10993 39.1411C0.00124607 39.5426 -0.0272144 39.9615 0.0261767 40.374C0.0795678 40.7865 0.213763 41.1844 0.421084 41.5449C0.628404 41.9055 0.904783 42.2216 1.23441 42.4753C1.56403 42.7289 1.94043 42.9151 2.34207 43.0231L71.0919 61.4625C71.4934 61.5712 71.9123 61.5996 72.3248 61.5462C72.7373 61.4928 73.1351 61.3586 73.4957 61.1513C73.8563 60.944 74.1724 60.6676 74.426 60.338C74.6797 60.0084 74.8658 59.632 74.9739 59.2303L79.8846 40.8977C79.9946 40.4962 80.024 40.0769 79.9713 39.664C79.9184 39.2511 79.7844 38.8527 79.5769 38.4919C79.3694 38.131 79.0926 37.8148 78.7622 37.5614C78.4319 37.3081 78.0548 37.1226 77.6524 37.0157V36.9866ZM78.1571 41.2083L73.654 57.9784C73.4903 58.587 73.0917 59.1056 72.5457 59.4204C71.9998 59.7352 71.3512 59.8205 70.7425 59.6574L3.51637 41.6838C2.90781 41.5201 2.38915 41.1215 2.07433 40.5755C1.75951 40.0296 1.6743 39.381 1.83741 38.7723L6.3308 21.9731C6.49452 21.3645 6.89314 20.8458 7.43907 20.531C7.98499 20.2162 8.63356 20.131 9.24228 20.2941L76.4781 38.3162C76.7793 38.3972 77.0614 38.5368 77.3085 38.7271C77.5555 38.9174 77.7625 39.1546 77.9176 39.4252C78.0727 39.6957 78.1728 39.9942 78.2123 40.3035C78.2517 40.6128 78.2297 40.9269 78.1474 41.2277L78.1571 41.2083ZM39.9973 11.5208C46.2659 11.5211 52.3592 13.59 57.3321 17.4065C62.3049 21.223 65.8794 26.5739 67.5011 32.6291L69.248 33.0949C67.9914 27.8174 65.3313 22.9778 61.5491 19.0886C57.7669 15.1993 53.0035 12.4051 47.7631 11.0018C42.5227 9.59844 37.0004 9.63819 31.7807 11.1168C26.5611 12.5955 21.8384 15.4579 18.1126 19.4012L19.8595 19.8671C22.4988 17.2179 25.6358 15.1167 29.0902 13.6843C32.5445 12.2519 36.248 11.5167 39.9875 11.5208H39.9973ZM47.2566 56.6779C43.4814 58.3128 39.2643 58.6223 35.2909 57.5563C31.3176 56.4903 27.8217 54.1114 25.3719 50.8064L23.0524 50.2144C25.6967 54.5962 29.9364 57.7824 34.8807 59.1035C39.825 60.4246 45.0889 59.7778 49.5663 57.2991L47.2566 56.6779ZM30.2826 59.9194L29.0307 58.9489L28.6425 60.492L27.2353 61.3169L28.6425 62.1418L29.0307 63.6849L30.2923 62.6659L31.9421 62.792L31.3113 61.3266L31.9421 59.8709L30.2826 59.9194ZM39.9875 64.7719L40.958 66.0335L41.715 64.5875L43.2775 64.044L42.1129 63.025V61.4237L40.6475 62.1903L39.085 61.7439L39.3373 63.3161L38.3668 64.636L39.9875 64.7719ZM19.9954 54.8922L21.2861 55.9307L21.587 54.3682L22.9263 53.5238L21.4996 52.6892L21.0338 51.1267L19.8595 52.1554L18.1999 52.0584L18.8987 53.5432L18.3843 55.0669L19.9954 54.8922ZM39.9973 68.4791C33.7291 68.4772 27.6365 66.4078 22.664 62.5915C17.6914 58.7752 14.1165 53.4253 12.4934 47.3709L10.7465 46.9051C12.0042 52.1806 14.6644 57.0181 18.4459 60.9057C22.2273 64.7933 26.9893 67.5865 32.228 68.9896C37.4668 70.3928 42.9873 70.3538 48.2057 68.8767C53.424 67.3996 58.1461 64.5394 61.8722 60.5987L60.1253 60.1329C57.486 62.7821 54.349 64.8833 50.8946 66.3157C47.4403 67.7481 43.7368 68.4833 39.9973 68.4791ZM51.4297 62.6562L52.7301 63.5587L53.0116 61.9574L54.3412 60.9869L52.9145 60.2979L52.439 58.7742L51.2647 59.9194L49.644 59.9776L50.3524 61.3945L49.8284 62.9473L51.4297 62.6562Z" fill="#B1B8C2"/>
<path d="M11.2947 30.3986L14.3547 31.2185L13.9116 32.8722L10.8516 32.0523L11.2947 30.3986ZM14.7399 29.7812L11.6798 28.9613L12.0981 27.4004L15.1581 28.2203L14.7399 29.7812ZM7.19696 38.8914C9.3386 38.9352 11.3 38.8479 13.0658 38.6253C13.1888 39.1552 13.281 39.6768 13.3731 40.1985L14.861 39.653C14.6409 38.4345 14.2541 36.9725 13.7006 35.2672L12.2726 35.7128C12.4163 36.1654 12.5446 36.6139 12.6688 37.0778C11.6813 37.1777 10.6166 37.2568 9.4519 37.276L10.4499 33.5514L15.0245 34.7771L17.062 27.1734L10.9109 25.5252L7.95419 36.56C7.85066 36.9463 7.5443 37.1624 7.0547 37.1968L7.19696 38.8914ZM19.1004 40.2754C20.244 40.5818 20.9887 40.1519 21.3034 38.9773L23.962 29.0554L18.5682 27.6101L14.8827 41.3649L16.49 41.7956L19.7697 29.5554L21.9488 30.1393L19.7955 38.1758C19.6837 38.593 19.3939 38.7473 18.9611 38.6313L17.9113 38.2838L17.9258 39.9607L19.1004 40.2754ZM29.593 37.8525L29.1747 39.4135L34.8775 40.9415L33.9748 44.3107C33.8754 44.6816 33.5897 44.8204 33.157 44.7044C32.5697 44.5471 31.964 44.3351 31.3314 44.0993L31.2728 45.74L33.3283 46.2908C34.4719 46.5973 35.1887 46.2096 35.4744 45.1432L36.4848 41.3722L38.1849 41.8277L38.6031 40.2668L36.9031 39.8113L37.2717 38.4358L35.6644 38.0051L35.2958 39.3806L29.593 37.8525ZM29.3458 29.9348L27.2794 37.6467C25.7531 38.3973 24.4673 38.9306 23.4218 39.2468L23.7145 40.9982C24.628 40.6798 25.6489 40.208 26.7535 39.6095L25.5111 44.2459L27.1494 44.6849L30.984 30.3737L29.3458 29.9348ZM31.3566 40.2962L29.9832 40.7234C30.4807 41.834 30.864 42.8146 31.1176 43.661L32.6209 43.1197C32.3466 42.3505 31.92 41.408 31.3566 40.2962ZM34.1079 33.8611L37.647 34.8094C37.0166 35.3693 36.1483 35.7661 35.038 36.0152C34.713 35.4974 34.3683 34.991 33.9731 34.4875L32.613 35.0507C32.9136 35.4128 33.2058 35.8059 33.4856 36.2452C32.592 36.304 31.583 36.2986 30.4431 36.2251L30.8617 37.8777C35.2396 38.1066 38.0956 37.2155 39.4646 35.197L39.8332 33.8215L35.5213 32.6662C35.6875 32.4788 35.8619 32.2605 36.0363 32.0422L34.45 31.2859C33.5458 32.435 32.1978 33.2002 30.3835 33.5423L31.0794 35.087C32.2247 34.8307 33.2291 34.4207 34.1079 33.8611ZM27.1119 31.2245L25.5564 31.4041C25.8787 32.5505 26.109 33.8546 26.2516 35.3008L27.8308 35.0945C27.6901 33.7647 27.4556 32.4761 27.1119 31.2245ZM42.2268 34.115L41.8044 35.6914L47.5227 37.2236L44.2926 49.2784L45.9154 49.7132L48.1764 41.2749C49.2698 42.2636 50.5936 43.6287 52.1715 45.3435L53.5344 44.1517C51.909 42.4904 50.2855 40.9455 48.6402 39.5439L49.1454 37.6585L55.6674 39.406L56.0898 37.8296L42.2268 34.115ZM57.947 39.3211L57.5288 40.8821L63.6179 42.5137L63.2038 44.0591L58.3819 42.7671L56.3942 50.1854L57.9861 50.612L59.5638 44.7237L62.7939 45.5892L60.6322 53.6566L62.2704 54.0955L64.4321 46.0281L67.8476 46.9433L66.8082 50.8225C66.7254 51.1316 66.4985 51.2364 66.1585 51.1453L64.711 50.6746L64.7224 52.301L66.2988 52.7234C67.3652 53.0091 68.0469 52.6286 68.3202 51.6086L69.8649 45.844L64.842 44.4981L65.2562 42.9526L71.3454 44.5842L71.7636 43.0233L65.628 41.3793C65.6011 40.6763 65.5379 40.0465 65.4582 39.4785L63.6373 39.2888C63.7799 39.8074 63.8834 40.3486 63.9589 40.932L57.947 39.3211Z" fill="#B1B8C2"/>
</svg>
