<svg width="80" height="80" viewBox="0 0 80 80" fill="none" xmlns="http://www.w3.org/2000/svg">
<path d="M39.9973 21.8078C42.8415 21.8051 45.6467 22.4702 48.1869 23.7496C50.7272 25.029 52.9316 26.8869 54.6226 29.1739L56.9421 29.795C54.301 25.41 50.0626 22.2197 45.1181 20.8949C40.1735 19.5701 34.9079 20.2139 30.4282 22.691L32.738 23.3121C35.0284 22.3162 37.4997 21.8041 39.9973 21.8078ZM51.944 20.7791L53.2154 21.8078L53.6036 20.2647L55.0205 19.4398L53.6036 18.6149L53.2154 17.0718L51.944 18.1005L50.2845 17.9744L50.9153 19.4398L50.2845 20.9053L51.944 20.7791ZM29.9138 17.3241L28.6134 16.4216L28.3319 18.0326L26.9926 19.0031L28.4387 19.6922L28.8754 21.2449L30.0594 20.0609L31.6898 20.0027L30.9814 18.5858L31.5151 17.033L29.9138 17.3241ZM42.1517 15.1017L41.1813 13.8401L40.4146 15.2764L38.8327 15.8199L39.9973 16.9165V18.5179L41.4918 17.7609L43.0446 18.1879L42.7923 16.6157L43.7628 15.2958L42.1517 15.1017ZM59.8439 25.0396L58.4755 24.0691L58.2814 25.651L56.9906 26.6215L58.4852 27.3591L59.0481 28.8633L60.1641 27.7278H61.814L61.0085 26.3012L61.4549 24.7678L59.8439 25.0396ZM77.6524 36.9864L8.90261 18.547C8.50115 18.4383 8.0822 18.4098 7.66972 18.4632C7.25725 18.5166 6.85935 18.6508 6.4988 18.8581C6.13824 19.0654 5.82209 19.3418 5.56846 19.6714C5.31482 20.0011 5.12866 20.3775 5.02063 20.7791L0.10993 39.1409C0.00124607 39.5423 -0.0272144 39.9613 0.0261767 40.3737C0.0795678 40.7862 0.213763 41.1841 0.421084 41.5447C0.628404 41.9052 0.904783 42.2214 1.23441 42.475C1.56403 42.7287 1.94043 42.9148 2.34207 43.0228L71.0919 61.4622C71.4934 61.5709 71.9123 61.5994 72.3248 61.546C72.7373 61.4926 73.1351 61.3584 73.4957 61.1511C73.8563 60.9438 74.1724 60.6674 74.426 60.3378C74.6797 60.0081 74.8658 59.6317 74.9739 59.2301L79.8846 40.8975C79.9946 40.496 80.024 40.0767 79.9713 39.6638C79.9184 39.2509 79.7844 38.8525 79.5769 38.4916C79.3694 38.1307 79.0926 37.8145 78.7622 37.5612C78.4319 37.3078 78.0548 37.1224 77.6524 37.0155V36.9864ZM78.1571 41.208L73.654 57.9782C73.4903 58.5867 73.0917 59.1054 72.5457 59.4202C71.9998 59.735 71.3512 59.8202 70.7425 59.6571L3.51637 41.6836C2.90781 41.5198 2.38915 41.1212 2.07433 40.5753C1.75951 40.0294 1.6743 39.3808 1.83741 38.7721L6.3308 21.9728C6.49452 21.3643 6.89314 20.8456 7.43907 20.5308C7.98499 20.216 8.63356 20.1307 9.24228 20.2939L76.4781 38.3159C76.7793 38.3969 77.0614 38.5366 77.3085 38.7269C77.5555 38.9172 77.7625 39.1544 77.9176 39.4249C78.0727 39.6954 78.1728 39.9939 78.2123 40.3032C78.2517 40.6126 78.2297 40.9266 78.1474 41.2274L78.1571 41.208ZM39.9973 11.5206C46.2659 11.5209 52.3592 13.5897 57.3321 17.4062C62.3049 21.2228 65.8794 26.5736 67.5011 32.6288L69.248 33.0947C67.9914 27.8172 65.3313 22.9776 61.5491 19.0883C57.7669 15.1991 53.0035 12.4049 47.7631 11.0015C42.5227 9.5982 37.0004 9.63795 31.7807 11.1166C26.5611 12.5952 21.8384 15.4577 18.1126 19.401L19.8595 19.8668C22.4988 17.2176 25.6358 15.1164 29.0902 13.684C32.5445 12.2517 36.248 11.5164 39.9875 11.5206H39.9973ZM47.2566 56.6777C43.4814 58.3125 39.2643 58.6221 35.2909 57.556C31.3176 56.49 27.8217 54.1111 25.3719 50.8062L23.0524 50.2142C25.6967 54.5959 29.9364 57.7821 34.8807 59.1033C39.825 60.4244 45.0889 59.7776 49.5663 57.2988L47.2566 56.6777ZM30.2826 59.9191L29.0307 58.9486L28.6425 60.4917L27.2353 61.3167L28.6425 62.1416L29.0307 63.6847L30.2923 62.6656L31.9421 62.7918L31.3113 61.3264L31.9421 59.8706L30.2826 59.9191ZM39.9875 64.7716L40.958 66.0333L41.715 64.5872L43.2775 64.0437L42.1129 63.0247V61.4234L40.6475 62.1901L39.085 61.7437L39.3373 63.3159L38.3668 64.6357L39.9875 64.7716ZM19.9954 54.892L21.2861 55.9304L21.587 54.3679L22.9263 53.5236L21.4996 52.689L21.0338 51.1265L19.8595 52.1552L18.1999 52.0581L18.8987 53.543L18.3843 55.0667L19.9954 54.892ZM39.9973 68.4789C33.7291 68.477 27.6365 66.4075 22.664 62.5913C17.6914 58.775 14.1165 53.425 12.4934 47.3707L10.7465 46.9048C12.0042 52.1804 14.6644 57.0179 18.4459 60.9055C22.2273 64.7931 26.9893 67.5862 32.228 68.9894C37.4668 70.3925 42.9873 70.3535 48.2057 68.8764C53.424 67.3994 58.1461 64.5392 61.8722 60.5985L60.1253 60.1326C57.486 62.7819 54.349 64.8831 50.8946 66.3155C47.4403 67.7478 43.7368 68.4831 39.9973 68.4789ZM51.4297 62.6559L52.7301 63.5585L53.0116 61.9572L54.3412 60.9867L52.9145 60.2976L52.439 58.774L51.2647 59.9191L49.644 59.9774L50.3524 61.3943L49.8284 62.9471L51.4297 62.6559Z" fill="#349AF9"/>
<path d="M11.2947 30.3986L14.3547 31.2185L13.9116 32.8722L10.8516 32.0523L11.2947 30.3986ZM14.7399 29.7812L11.6798 28.9613L12.0981 27.4004L15.1581 28.2203L14.7399 29.7812ZM7.19696 38.8914C9.3386 38.9352 11.3 38.8479 13.0658 38.6253C13.1888 39.1552 13.281 39.6768 13.3731 40.1985L14.861 39.653C14.6409 38.4345 14.2541 36.9725 13.7006 35.2672L12.2726 35.7128C12.4163 36.1654 12.5446 36.6139 12.6688 37.0778C11.6813 37.1777 10.6166 37.2568 9.4519 37.276L10.4499 33.5514L15.0245 34.7771L17.062 27.1734L10.9109 25.5252L7.95419 36.56C7.85066 36.9463 7.5443 37.1624 7.0547 37.1968L7.19696 38.8914ZM19.1004 40.2754C20.244 40.5818 20.9887 40.1519 21.3034 38.9773L23.962 29.0554L18.5682 27.6101L14.8827 41.3649L16.49 41.7956L19.7697 29.5554L21.9488 30.1393L19.7955 38.1758C19.6837 38.593 19.3939 38.7473 18.9611 38.6313L17.9113 38.2838L17.9258 39.9607L19.1004 40.2754ZM29.593 37.8525L29.1747 39.4135L34.8775 40.9415L33.9748 44.3107C33.8754 44.6816 33.5897 44.8204 33.157 44.7044C32.5697 44.5471 31.964 44.3351 31.3314 44.0993L31.2728 45.74L33.3283 46.2908C34.4719 46.5973 35.1887 46.2096 35.4744 45.1432L36.4848 41.3722L38.1849 41.8277L38.6031 40.2668L36.9031 39.8113L37.2717 38.4358L35.6644 38.0051L35.2958 39.3806L29.593 37.8525ZM29.3458 29.9348L27.2794 37.6467C25.7531 38.3973 24.4673 38.9306 23.4218 39.2468L23.7145 40.9982C24.628 40.6798 25.6489 40.208 26.7535 39.6095L25.5111 44.2459L27.1494 44.6849L30.984 30.3737L29.3458 29.9348ZM31.3566 40.2962L29.9832 40.7234C30.4807 41.834 30.864 42.8146 31.1176 43.661L32.6209 43.1197C32.3466 42.3505 31.92 41.408 31.3566 40.2962ZM34.1079 33.8611L37.647 34.8094C37.0166 35.3693 36.1483 35.7661 35.038 36.0152C34.713 35.4974 34.3683 34.991 33.9731 34.4875L32.613 35.0507C32.9136 35.4128 33.2058 35.8059 33.4856 36.2452C32.592 36.304 31.583 36.2986 30.4431 36.2251L30.8617 37.8777C35.2396 38.1066 38.0956 37.2155 39.4646 35.197L39.8332 33.8215L35.5213 32.6662C35.6875 32.4788 35.8619 32.2605 36.0363 32.0422L34.45 31.2859C33.5458 32.435 32.1978 33.2002 30.3835 33.5423L31.0794 35.087C32.2247 34.8307 33.2291 34.4207 34.1079 33.8611ZM27.1119 31.2245L25.5564 31.4041C25.8787 32.5505 26.109 33.8546 26.2516 35.3008L27.8308 35.0945C27.6901 33.7647 27.4556 32.4761 27.1119 31.2245ZM47.7831 34.8916L44.5158 47.0854L39.153 45.6485L38.7306 47.2249L52.6245 50.9477L53.0469 49.3713L46.1849 47.5327L47.8041 41.4898L53.5224 43.0221L53.9406 41.4611L48.2223 39.9289L49.4522 35.3388L47.7831 34.8916ZM57.947 39.3211L57.5288 40.8821L63.6179 42.5137L63.2038 44.0591L58.3819 42.7671L56.3942 50.1854L57.9861 50.612L59.5638 44.7237L62.7939 45.5892L60.6322 53.6566L62.2704 54.0955L64.4321 46.0281L67.8476 46.9433L66.8082 50.8225C66.7254 51.1316 66.4985 51.2364 66.1585 51.1453L64.711 50.6746L64.7224 52.301L66.2988 52.7234C67.3652 53.0091 68.0469 52.6286 68.3202 51.6086L69.8649 45.844L64.842 44.4981L65.2562 42.9526L71.3454 44.5842L71.7636 43.0233L65.628 41.3793C65.6011 40.6763 65.5379 40.0465 65.4582 39.4785L63.6373 39.2888C63.7799 39.8074 63.8834 40.3486 63.9589 40.932L57.947 39.3211Z" fill="#349AF9"/>
</svg>
