<svg width="80" height="81" viewBox="0 0 80 81" fill="none" xmlns="http://www.w3.org/2000/svg">
<path d="M39.9973 22.3078C42.8415 22.3051 45.6467 22.9702 48.1869 24.2496C50.7272 25.529 52.9316 27.3869 54.6226 29.6739L56.9421 30.295C54.301 25.91 50.0626 22.7197 45.1181 21.3949C40.1735 20.0701 34.9079 20.7139 30.4282 23.191L32.738 23.8121C35.0284 22.8162 37.4997 22.3041 39.9973 22.3078ZM51.944 21.2791L53.2154 22.3078L53.6036 20.7647L55.0205 19.9398L53.6036 19.1149L53.2154 17.5718L51.944 18.6005L50.2845 18.4744L50.9153 19.9398L50.2845 21.4053L51.944 21.2791ZM29.9138 17.8241L28.6134 16.9216L28.3319 18.5326L26.9926 19.5031L28.4387 20.1922L28.8754 21.7449L30.0594 20.5609L31.6898 20.5027L30.9814 19.0858L31.5151 17.533L29.9138 17.8241ZM42.1517 15.6017L41.1813 14.3401L40.4146 15.7764L38.8327 16.3199L39.9973 17.4165V19.0179L41.4918 18.2609L43.0446 18.6879L42.7923 17.1157L43.7628 15.7958L42.1517 15.6017ZM59.8439 25.5396L58.4755 24.5691L58.2814 26.151L56.9906 27.1215L58.4852 27.8591L59.0481 29.3633L60.1641 28.2278H61.814L61.0085 26.8012L61.4549 25.2678L59.8439 25.5396ZM77.6524 37.4864L8.90261 19.047C8.50115 18.9383 8.0822 18.9098 7.66972 18.9632C7.25725 19.0166 6.85935 19.1508 6.4988 19.3581C6.13824 19.5654 5.82209 19.8418 5.56846 20.1714C5.31482 20.5011 5.12866 20.8775 5.02063 21.2791L0.10993 39.6409C0.00124607 40.0423 -0.0272144 40.4613 0.0261767 40.8737C0.0795678 41.2862 0.213763 41.6841 0.421084 42.0447C0.628404 42.4052 0.904783 42.7214 1.23441 42.975C1.56403 43.2287 1.94043 43.4148 2.34207 43.5228L71.0919 61.9622C71.4934 62.0709 71.9123 62.0994 72.3248 62.046C72.7373 61.9926 73.1351 61.8584 73.4957 61.6511C73.8563 61.4438 74.1724 61.1674 74.426 60.8378C74.6797 60.5081 74.8658 60.1317 74.9739 59.7301L79.8846 41.3975C79.9946 40.996 80.024 40.5767 79.9713 40.1638C79.9184 39.7509 79.7844 39.3525 79.5769 38.9916C79.3694 38.6307 79.0926 38.3145 78.7622 38.0612C78.4319 37.8078 78.0548 37.6224 77.6524 37.5155V37.4864ZM78.1571 41.708L73.654 58.4782C73.4903 59.0867 73.0917 59.6054 72.5457 59.9202C71.9998 60.235 71.3512 60.3202 70.7425 60.1571L3.51637 42.1836C2.90781 42.0198 2.38915 41.6212 2.07433 41.0753C1.75951 40.5294 1.6743 39.8808 1.83741 39.2721L6.3308 22.4728C6.49452 21.8643 6.89314 21.3456 7.43907 21.0308C7.98499 20.716 8.63356 20.6307 9.24228 20.7939L76.4781 38.8159C76.7793 38.8969 77.0614 39.0366 77.3085 39.2269C77.5555 39.4172 77.7625 39.6544 77.9176 39.9249C78.0727 40.1954 78.1728 40.4939 78.2123 40.8032C78.2517 41.1126 78.2297 41.4266 78.1474 41.7274L78.1571 41.708ZM39.9973 12.0206C46.2659 12.0209 52.3592 14.0897 57.3321 17.9062C62.3049 21.7228 65.8794 27.0736 67.5011 33.1288L69.248 33.5947C67.9914 28.3172 65.3313 23.4776 61.5491 19.5883C57.7669 15.6991 53.0035 12.9049 47.7631 11.5015C42.5227 10.0982 37.0004 10.1379 31.7807 11.6166C26.5611 13.0952 21.8384 15.9577 18.1126 19.901L19.8595 20.3668C22.4988 17.7176 25.6358 15.6164 29.0902 14.184C32.5445 12.7517 36.248 12.0164 39.9875 12.0206H39.9973ZM47.2566 57.1777C43.4814 58.8125 39.2643 59.1221 35.2909 58.056C31.3176 56.99 27.8217 54.6111 25.3719 51.3062L23.0524 50.7142C25.6967 55.0959 29.9364 58.2821 34.8807 59.6033C39.825 60.9244 45.0889 60.2776 49.5663 57.7988L47.2566 57.1777ZM30.2826 60.4191L29.0307 59.4486L28.6425 60.9917L27.2353 61.8167L28.6425 62.6416L29.0307 64.1847L30.2923 63.1656L31.9421 63.2918L31.3113 61.8264L31.9421 60.3706L30.2826 60.4191ZM39.9875 65.2716L40.958 66.5333L41.715 65.0872L43.2775 64.5437L42.1129 63.5247V61.9234L40.6475 62.6901L39.085 62.2437L39.3373 63.8159L38.3668 65.1357L39.9875 65.2716ZM19.9954 55.392L21.2861 56.4304L21.587 54.8679L22.9263 54.0236L21.4996 53.189L21.0338 51.6265L19.8595 52.6552L18.1999 52.5581L18.8987 54.043L18.3843 55.5667L19.9954 55.392ZM39.9973 68.9789C33.7291 68.977 27.6365 66.9075 22.664 63.0913C17.6914 59.275 14.1165 53.925 12.4934 47.8707L10.7465 47.4048C12.0042 52.6804 14.6644 57.5179 18.4459 61.4055C22.2273 65.2931 26.9893 68.0862 32.228 69.4894C37.4668 70.8925 42.9873 70.8535 48.2057 69.3764C53.424 67.8994 58.1461 65.0392 61.8722 61.0985L60.1253 60.6326C57.486 63.2819 54.349 65.3831 50.8946 66.8155C47.4403 68.2478 43.7368 68.9831 39.9973 68.9789ZM51.4297 63.1559L52.7301 64.0585L53.0116 62.4572L54.3412 61.4867L52.9145 60.7976L52.439 59.274L51.2647 60.4191L49.644 60.4774L50.3524 61.8943L49.8284 63.4471L51.4297 63.1559Z" fill="#B1B8C2"/>
<path d="M29.2557 29.9909C27.9534 32.1929 26.3826 33.9751 24.5547 35.357L24.6318 37.2329C25.1382 36.8883 25.6334 36.524 26.1172 36.1401L23.9887 44.0839L25.6115 44.5187L28.4398 33.9631C29.057 33.2671 29.6319 32.5433 30.1575 31.7565L29.8262 32.9929L39.4545 35.5728L39.8355 34.1509L35.5545 33.0038C35.551 32.5225 35.535 32.0876 35.5108 31.6835L33.798 31.5227C33.8584 31.8537 33.8992 32.1959 33.9318 32.569L30.269 31.5876L30.5602 31.119L29.2557 29.9909ZM30.5652 33.8203L29.7204 36.9731L37.3242 39.0105L38.169 35.8577L30.5652 33.8203ZM36.078 37.4177L31.6115 36.2209L31.8227 35.4327L36.2892 36.6295L36.078 37.4177ZM38.3836 39.9404L28.4153 37.2694L27.6367 40.1749L28.734 40.4689L28.498 41.3499L31.6817 42.2029L31.2427 43.8411C31.1682 44.1193 30.9413 44.2242 30.5858 44.1289C30.1067 44.0006 29.605 43.833 29.0961 43.6304L29.0333 45.2865L30.7488 45.7462C31.8307 46.0361 32.5082 45.671 32.7733 44.6819L33.3199 42.6419L36.4572 43.4825L36.6933 42.6016L37.6051 42.8459L38.3836 39.9404ZM29.3147 40.0945L29.588 39.0744L36.4654 40.9172L36.1921 41.9373L29.3147 40.0945ZM49.7187 35.4243L47.9441 35.2469C48.0683 35.7109 48.1646 36.217 48.233 36.7654L42.8701 35.3285L42.4602 36.8585L45.1802 37.5873L45.185 39.6095L42.0786 38.7771L41.122 42.3472C40.5486 44.3635 39.7089 45.8281 38.6143 46.7605L39.5412 48.185C40.9855 46.9983 42.0482 45.196 42.7602 42.7861L43.2986 40.777L54.2097 43.7006L54.6279 42.1397L51.1351 41.2038C51.548 40.6519 51.9146 40.0875 52.2431 39.4798L54.8086 40.1672L55.2185 38.6372L49.8866 37.2085C49.8627 36.5561 49.8067 35.9613 49.7187 35.4243ZM46.7769 40.036L46.7721 38.0139L50.6976 39.0657C50.3691 39.6734 50.0026 40.2378 49.5742 40.7855L46.7769 40.036Z" fill="#B1B8C2"/>
</svg>
