<svg width="80" height="80" viewBox="0 0 80 80" fill="none" xmlns="http://www.w3.org/2000/svg">
<path d="M39.9973 21.8081C42.8415 21.8053 45.6467 22.4704 48.1869 23.7498C50.7272 25.0292 52.9316 26.8872 54.6226 29.1741L56.9421 29.7952C54.301 25.4102 50.0626 22.2199 45.1181 20.8951C40.1735 19.5703 34.9079 20.2141 30.4282 22.6912L32.738 23.3123C35.0284 22.3165 37.4997 21.8044 39.9973 21.8081ZM51.944 20.7793L53.2154 21.8081L53.6036 20.265L55.0205 19.4401L53.6036 18.6151L53.2154 17.0721L51.944 18.1008L50.2845 17.9746L50.9153 19.4401L50.2845 20.9055L51.944 20.7793ZM29.9138 17.3244L28.6134 16.4218L28.3319 18.0328L26.9926 19.0033L28.4387 19.6924L28.8754 21.2452L30.0594 20.0612L31.6898 20.003L30.9814 18.586L31.5151 17.0332L29.9138 17.3244ZM42.1517 15.102L41.1813 13.8403L40.4146 15.2766L38.8327 15.8201L39.9973 16.9168V18.5181L41.4918 17.7611L43.0446 18.1881L42.7923 16.6159L43.7628 15.2961L42.1517 15.102ZM59.8439 25.0398L58.4755 24.0693L58.2814 25.6512L56.9906 26.6217L58.4852 27.3593L59.0481 28.8636L60.1641 27.7281H61.814L61.0085 26.3015L61.4549 24.7681L59.8439 25.0398ZM77.6524 36.9866L8.90261 18.5472C8.50115 18.4385 8.0822 18.4101 7.66972 18.4635C7.25725 18.5168 6.85935 18.651 6.4988 18.8584C6.13824 19.0657 5.82209 19.3421 5.56846 19.6717C5.31482 20.0013 5.12866 20.3777 5.02063 20.7793L0.10993 39.1411C0.00124607 39.5426 -0.0272144 39.9615 0.0261767 40.374C0.0795678 40.7865 0.213763 41.1844 0.421084 41.5449C0.628404 41.9055 0.904783 42.2216 1.23441 42.4753C1.56403 42.7289 1.94043 42.9151 2.34207 43.0231L71.0919 61.4625C71.4934 61.5712 71.9123 61.5996 72.3248 61.5462C72.7373 61.4928 73.1351 61.3586 73.4957 61.1513C73.8563 60.944 74.1724 60.6676 74.426 60.338C74.6797 60.0084 74.8658 59.632 74.9739 59.2303L79.8846 40.8977C79.9946 40.4962 80.024 40.0769 79.9713 39.664C79.9184 39.2511 79.7844 38.8527 79.5769 38.4919C79.3694 38.131 79.0926 37.8148 78.7622 37.5614C78.4319 37.3081 78.0548 37.1226 77.6524 37.0157V36.9866ZM78.1571 41.2083L73.654 57.9784C73.4903 58.587 73.0917 59.1056 72.5457 59.4204C71.9998 59.7352 71.3512 59.8205 70.7425 59.6574L3.51637 41.6838C2.90781 41.5201 2.38915 41.1215 2.07433 40.5755C1.75951 40.0296 1.6743 39.381 1.83741 38.7723L6.3308 21.9731C6.49452 21.3645 6.89314 20.8458 7.43907 20.531C7.98499 20.2162 8.63356 20.131 9.24228 20.2941L76.4781 38.3162C76.7793 38.3972 77.0614 38.5368 77.3085 38.7271C77.5555 38.9174 77.7625 39.1546 77.9176 39.4252C78.0727 39.6957 78.1728 39.9942 78.2123 40.3035C78.2517 40.6128 78.2297 40.9269 78.1474 41.2277L78.1571 41.2083ZM39.9973 11.5208C46.2659 11.5211 52.3592 13.59 57.3321 17.4065C62.3049 21.223 65.8794 26.5739 67.5011 32.6291L69.248 33.0949C67.9914 27.8174 65.3313 22.9778 61.5491 19.0886C57.7669 15.1993 53.0035 12.4051 47.7631 11.0018C42.5227 9.59844 37.0004 9.63819 31.7807 11.1168C26.5611 12.5955 21.8384 15.4579 18.1126 19.4012L19.8595 19.8671C22.4988 17.2179 25.6358 15.1167 29.0902 13.6843C32.5445 12.2519 36.248 11.5167 39.9875 11.5208H39.9973ZM47.2566 56.6779C43.4814 58.3128 39.2643 58.6223 35.2909 57.5563C31.3176 56.4903 27.8217 54.1114 25.3719 50.8064L23.0524 50.2144C25.6967 54.5962 29.9364 57.7824 34.8807 59.1035C39.825 60.4246 45.0889 59.7778 49.5663 57.2991L47.2566 56.6779ZM30.2826 59.9194L29.0307 58.9489L28.6425 60.492L27.2353 61.3169L28.6425 62.1418L29.0307 63.6849L30.2923 62.6659L31.9421 62.792L31.3113 61.3266L31.9421 59.8709L30.2826 59.9194ZM39.9875 64.7719L40.958 66.0335L41.715 64.5875L43.2775 64.044L42.1129 63.025V61.4237L40.6475 62.1903L39.085 61.7439L39.3373 63.3161L38.3668 64.636L39.9875 64.7719ZM19.9954 54.8922L21.2861 55.9307L21.587 54.3682L22.9263 53.5238L21.4996 52.6892L21.0338 51.1267L19.8595 52.1554L18.1999 52.0584L18.8987 53.5432L18.3843 55.0669L19.9954 54.8922ZM39.9973 68.4791C33.7291 68.4772 27.6365 66.4078 22.664 62.5915C17.6914 58.7752 14.1165 53.4253 12.4934 47.3709L10.7465 46.9051C12.0042 52.1806 14.6644 57.0181 18.4459 60.9057C22.2273 64.7933 26.9893 67.5865 32.228 68.9896C37.4668 70.3928 42.9873 70.3538 48.2057 68.8767C53.424 67.3996 58.1461 64.5394 61.8722 60.5987L60.1253 60.1329C57.486 62.7821 54.349 64.8833 50.8946 66.3157C47.4403 67.7481 43.7368 68.4833 39.9973 68.4791ZM51.4297 62.6562L52.7301 63.5587L53.0116 61.9574L54.3412 60.9869L52.9145 60.2979L52.439 58.7742L51.2647 59.9194L49.644 59.9776L50.3524 61.3945L49.8284 62.9473L51.4297 62.6562Z" fill="#F9434D"/>
<path d="M39.502 32.4849C37.83 32.6663 36.0472 32.5199 34.1225 32.0373L32.3252 38.7447C31.6547 41 30.6994 42.6489 29.4902 43.6998L30.3221 45.2313C31.8893 43.8954 33.0759 41.8777 33.8862 39.1629L34.2796 37.6947L35.9487 38.142L33.7912 46.1939L35.383 46.6205L37.5406 38.5685L38.9624 38.9495L39.3724 37.4195L34.6896 36.1647L35.3314 33.7692C36.9481 34.103 38.4713 34.2295 39.9009 34.1488L39.502 32.4849ZM26.3073 30.1089L25.9098 31.5925L33.0035 33.4933L33.4011 32.0096L30.5883 31.256C30.5353 30.7117 30.4854 30.218 30.4076 29.7665L28.664 29.5974C28.7934 29.9799 28.8991 30.3892 28.981 30.8253L26.3073 30.1089ZM25.2127 33.5757L24.8193 35.0439L27.7557 35.8307L27.4203 37.0826L24.7312 36.362L24.3378 37.8302L27.0269 38.5508L26.0455 42.2136C25.9668 42.5072 25.7399 42.6121 25.3999 42.521C25.2144 42.4713 25.0105 42.3669 24.7952 42.243L24.7532 43.8219L25.5568 44.0372C26.6232 44.323 27.2925 43.9888 27.5492 43.0306L28.6342 38.9814L31.1688 39.6606L31.5622 38.1924L29.0276 37.5132L29.363 36.2614L32.1604 37.0109L32.5538 35.5427L31.0546 35.141C31.3757 34.7467 31.6895 34.3173 32.0157 33.8415L30.7151 32.9464C30.3629 33.5808 29.988 34.1761 29.5864 34.7476L28.2264 34.3832C28.213 33.568 28.1705 32.8609 28.0878 32.2424L26.521 32.4023C26.6523 32.9013 26.7403 33.4384 26.7891 33.9981L25.2127 33.5757ZM25.0417 38.6649C24.4436 39.8463 23.6611 40.9121 22.6983 41.8468L23.8152 43.0571C24.7748 42.0719 25.6338 40.8444 26.4117 39.3632L25.0417 38.6649ZM30.0739 39.9138L28.6496 39.9132C28.7453 40.9161 28.7863 41.9375 28.7614 42.9578L30.2622 42.7968C30.2612 41.9352 30.1881 40.9714 30.0739 39.9138ZM44.8424 34.3299L43.364 39.8473L52.2505 42.2284L53.7289 36.7111L44.8424 34.3299ZM51.0336 40.279L45.3926 38.7675L46.0593 36.2793L51.7003 37.7908L51.0336 40.279ZM46.8308 41.8695L41.0043 40.3083L39.116 47.3557L40.6923 47.7781L40.887 47.0517L43.5761 47.7722L43.3815 48.4986L44.9424 48.9169L46.8308 41.8695ZM41.2887 45.5526L42.1749 42.2452L44.864 42.9658L43.9778 46.2731L41.2887 45.5526ZM54.0482 43.8034L48.0362 42.1925L46.1479 49.2399L47.7243 49.6623L47.9189 48.9359L50.7471 49.6937L50.5525 50.4201L52.1598 50.8508L54.0482 43.8034ZM48.3206 47.4368L49.2068 44.1294L52.035 44.8873L51.1488 48.1946L48.3206 47.4368Z" fill="#F9434D"/>
</svg>
